<svg xmlns="http://www.w3.org/2000/svg" xmlns:xlink="http://www.w3.org/1999/xlink" version="1.1" x="0px" y="0px" viewBox="0 0 100 125" style="enable-background:new 0 0 100 100;" xml:space="preserve"><path d="M86.17,74.55c-2.48-2.575-5.292-5.493-5.292-13.129V41.734c0-14.793-13.223-27.838-28.781-28.927v-5.68  c0-1.158-0.938-2.096-2.096-2.096s-2.096,0.939-2.096,2.096v5.68c-15.559,1.089-28.782,14.134-28.782,28.927v19.687  c0,7.636-2.811,10.554-5.292,13.129c-1.69,1.755-3.439,3.569-3.439,6.425c0,2.276,1.852,4.128,4.128,4.128h23.714  c0.995,5.598,5.887,9.867,11.767,9.867s10.772-4.268,11.767-9.867h23.714c2.276,0,4.128-1.852,4.128-4.128  C89.609,78.119,87.861,76.304,86.17,74.55z M50,90.777c-3.558,0-6.558-2.406-7.476-5.674h14.952  C56.558,88.371,53.558,90.777,50,90.777z M14.583,80.91c0.029-1.082,0.805-1.937,2.266-3.453c2.574-2.672,6.465-6.71,6.465-16.037  V41.734c0-13.221,12.471-24.818,26.686-24.818s26.686,11.597,26.686,24.818v19.687c0,9.327,3.891,13.365,6.466,16.037  c1.461,1.516,2.236,2.37,2.266,3.453H14.583z M46.483,25.098c0.35,1.103-0.261,2.281-1.364,2.631  c-5.673,1.8-11.778,6.95-11.778,14.004c0,1.158-0.938,2.096-2.096,2.096s-2.096-0.939-2.096-2.096  c0-9.162,7.621-15.753,14.701-17.999C44.954,23.385,46.133,23.995,46.483,25.098z"/></svg>