<svg xmlns="http://www.w3.org/2000/svg" xmlns:xlink="http://www.w3.org/1999/xlink" version="1.1" x="0px" y="0px" viewBox="0 0 42 52.5" enable-background="new 0 0 42 42" xml:space="preserve"><g><path d="M27,15H5v-2h22c1.103,0,2-0.897,2-2s-0.897-2-2-2s-2,0.897-2,2h-2c0-2.206,1.794-4,4-4s4,1.794,4,4S29.206,15,27,15z"/><path d="M34,23h-1v-2h1c0.552,0,1-0.449,1-1s-0.448-1-1-1H23v-2h11c1.654,0,3,1.346,3,3S35.654,23,34,23z"/><path d="M28,27h-1v-2h1c0.552,0,1-0.449,1-1s-0.448-1-1-1H5v-2h23c1.654,0,3,1.346,3,3S29.654,27,28,27z"/><path d="M21,33c-2.206,0-4-1.794-4-4h2c0,1.103,0.897,2,2,2s2-0.897,2-2s-0.897-2-2-2H9v-2h12c2.206,0,4,1.794,4,4S23.206,33,21,33   z"/><rect x="7" y="17" width="2" height="2"/><rect x="11" y="17" width="10" height="2"/><rect x="5" y="25" width="2" height="2"/></g></svg>