<svg xmlns:dc="http://purl.org/dc/elements/1.1/" xmlns:cc="http://creativecommons.org/ns#" xmlns:rdf="http://www.w3.org/1999/02/22-rdf-syntax-ns#" xmlns:svg="http://www.w3.org/2000/svg" xmlns="http://www.w3.org/2000/svg" xmlns:sodipodi="http://sodipodi.sourceforge.net/DTD/sodipodi-0.dtd" xmlns:inkscape="http://www.inkscape.org/namespaces/inkscape" version="1.1" x="0px" y="0px" viewBox="0 0 100 125"><g transform="translate(0,-952.36218)"><path style="text-indent:0;text-transform:none;direction:ltr;block-progression:tb;baseline-shift:baseline;color:#000000;enable-background:accumulate;" d="m 29.78125,959.37246 c -0.982752,0.10794 -1.802514,1.0423 -1.78125,2.03027 l 0,13.99324 c -0.01494,1.05611 0.943269,2.0275 2,2.0275 1.056731,0 2.014943,-0.97139 2,-2.0275 l 0,-13.99324 c 0.02444,-1.13401 -1.09076,-2.15447 -2.21875,-2.03027 z m 40,0 c -0.982752,0.10794 -1.802514,1.0423 -1.78125,2.03027 l 0,13.99324 c -0.01494,1.05611 0.943269,2.0275 2,2.0275 1.056731,0 2.014943,-0.97139 2,-2.0275 l 0,-13.99324 c 0.02444,-1.13401 -1.09076,-2.15447 -2.21875,-2.03027 z M 17,966.40031 c -6.059406,0 -11,4.93821 -11,10.99469 l 0,56.9725 c 0,6.0565 4.940594,10.9947 11,10.9947 l 66,0 c 6.059406,0 11,-4.9382 11,-10.9947 l 0,-56.9725 c 0,-6.05648 -4.940594,-10.99469 -11,-10.99469 l -5,0 c -1.056625,-0.0149 -2.028484,0.94282 -2.028484,1.99904 0,1.05622 0.971859,2.01397 2.028484,1.99903 l 5,0 c 3.912594,0 7,3.08592 7,6.99662 l 0,56.9725 c 0,3.9107 -3.087406,6.9966 -7,6.9966 l -66,0 c -3.912594,0 -7,-3.0859 -7,-6.9966 l 0,-45.97781 74,0 c 1.056625,0.0149 2.028484,-0.94281 2.028484,-1.99903 0,-1.05622 -0.971859,-2.01397 -2.028484,-1.99903 l -74,0 0,-6.99663 c 0,-3.9107 3.087406,-6.99662 7,-6.99662 l 5,0 c 1.056625,0.0149 2.028484,-0.94281 2.028484,-1.99903 0,-1.05622 -0.971859,-2.01397 -2.028484,-1.99904 z m 20.8125,0 c -1.047341,0.0489 -1.955743,1.04594 -1.906649,2.09276 0.04909,1.04683 1.046828,1.95459 2.094149,1.90531 l 24,0 c 1.056625,0.0149 2.028484,-0.94281 2.028484,-1.99903 0,-1.05622 -0.971859,-2.01397 -2.028484,-1.99904 -8.057302,0 -16.143924,0 -24.1875,0 z M 35,999.38438 c -4.399399,0 -8,4.09602 -8,8.99562 -0.01494,1.0562 0.943269,2.0275 2,2.0275 1.056731,0 2.014943,-0.9713 2,-2.0275 0,-2.8526 2.355763,-4.9975 4,-4.9975 l 3,0 c 1.644234,0 4,2.1449 4,4.9975 0,1.5982 -0.416367,2.9645 -1,3.8107 -0.583633,0.8462 -1.177861,1.1869 -2,1.1869 l -4.53125,0 c -1.056625,-0.015 -2.028484,0.9428 -2.028484,1.9991 0,1.0562 0.971859,2.0139 2.028484,1.999 l 4.53125,0 c 0.822117,0 1.416358,0.3096 2,1.1557 0.583642,0.8462 1,2.2438 1,3.8419 0,2.8526 -2.355722,4.9976 -4,4.9976 l -3,0 c -1.644281,0 -4,-2.145 -4,-4.9976 0.01494,-1.0561 -0.943269,-2.0275 -2,-2.0275 -1.056731,0 -2.014943,0.9714 -2,2.0275 0,4.8996 3.600645,8.9956 8,8.9956 l 3,0 c 4.399354,0 8,-4.096 8,-8.9956 0,-2.2779 -0.557846,-4.4076 -1.71875,-6.0908 -0.223943,-0.3247 -0.472965,-0.621 -0.75,-0.9058 0.277037,-0.2868 0.526056,-0.6124 0.75,-0.9371 C 45.442163,1012.7565 46,1010.6579 46,1008.38 c 0,-4.8996 -3.600602,-8.99562 -8,-8.99562 z m 27.28125,0 c -0.916482,-0.11434 -1.487502,0.47398 -2,0.96832 -2.411657,2.4362 -4.765495,4.7642 -6.65625,6.5905 -0.883652,0.6832 -0.993822,2.1564 -0.221611,2.9633 0.772211,0.8069 2.249497,0.7624 2.971611,-0.09 2.108288,-2.0344 2.584796,-2.528 3.625,-3.5607 1.75e-4,6.982 2.32e-4,14.2199 0,21.1148 -1.719931,0 -3.482912,0 -5.1875,0 -1.047341,0.049 -1.955743,1.0459 -1.906649,2.0927 0.04909,1.0469 1.046828,1.9546 2.094149,1.9053 l 14,0 c 1.056625,0.015 2.028484,-0.9428 2.028484,-1.999 0,-1.0562 -0.971859,-2.014 -2.028484,-1.999 l -5,0 c -9.6e-5,-8.5196 2.92e-4,-18.884 0,-26.2374 -0.036,-0.7304 -0.883333,-1.5565 -1.71875,-1.74912 z" fill="#000000" fill-opacity="1" stroke="none" marker="none" visibility="visible" display="inline" overflow="visible"/></g></svg>