<svg xmlns="http://www.w3.org/2000/svg" viewBox="0 0 32 40" x="0px" y="0px"><title>office vol.2</title><path d="M5,24.5C5,27.64,9.73,30,16,30s11-2.36,11-5.5c0-2.09-2.07-3.86-5.5-4.8l1.69-1.95a9.51,9.51,0,1,0-14.38,0L10.5,19.7C7.07,20.64,5,22.41,5,24.5Zm7.53-3.21h0a1,1,0,0,0,.78-1.16,1,1,0,0,0-.29-.54l-2.73-3.15a7.52,7.52,0,1,1,11.36,0L16,23l-1.42-1.64-1.51,1.31,2.17,2.51a1,1,0,0,0,1.52,0L20,21.4c3.27.68,5,2.05,5,3.1,0,1.65-3.85,3.5-9,3.5s-9-1.85-9-3.5C7,23.39,8.9,21.93,12.53,21.29Z"/><path d="M21,11a5,5,0,0,0-2.06-4L17.76,8.57A3,3,0,1,1,16,8a2.78,2.78,0,0,1,.76.1l.5-1.94A4.89,4.89,0,0,0,16,6a5,5,0,1,0,5,5Z"/></svg>