<svg xmlns="http://www.w3.org/2000/svg" xmlns:xlink="http://www.w3.org/1999/xlink" xmlns:xodm="http://www.corel.com/coreldraw/odm/2003" xml:space="preserve" version="1.1" style="shape-rendering:geometricPrecision;text-rendering:geometricPrecision;image-rendering:optimizeQuality;" viewBox="0 0 846.66 1058.325" x="0px" y="0px" fill-rule="evenodd" clip-rule="evenodd"><defs><style type="text/css">
   
    .fil0 {fill:black;fill-rule:nonzero}
   
  </style></defs><g><path class="fil0" d="M423.32 19.65c74.55,0 142.07,30.24 190.93,79.1 48.86,48.86 79.1,116.38 79.1,190.93 0,84.83 -52.16,171.85 -114.49,257.2l3.45 0c14.03,0 27.13,4.12 38.07,11.51l1.24 0.92c10.34,7.36 18.58,17.68 23.58,30.19l57.76 144.6c4.29,10.66 5.82,21.67 4.66,32.41 -1.17,10.79 -5,21.22 -11.41,30.7l-0.89 1.21c-6.35,8.99 -14.3,16.02 -23.37,20.84 -9.57,5.08 -20.37,7.75 -31.84,7.75l-433.57 0c-11.48,0 -22.27,-2.67 -31.84,-7.75 -9.47,-5.03 -17.72,-12.48 -24.2,-22.05 -6.47,-9.48 -10.3,-19.91 -11.47,-30.7 -1.16,-10.7 0.37,-21.68 4.63,-32.36l57.79 -144.65c5.2,-13.01 13.89,-23.64 24.82,-31.05 10.93,-7.44 24.03,-11.57 38.07,-11.57l3.44 0c-62.32,-85.35 -114.49,-172.36 -114.49,-257.2 0,-74.55 30.24,-142.07 79.1,-190.93 48.86,-48.86 116.38,-79.1 190.93,-79.1zm130.29 561.11c-10.31,13.61 -20.73,27.15 -31.1,40.63 -12.87,16.71 -25.76,33.48 -40.37,53.01 -7.05,9.43 -15.81,16.77 -25.88,21.82 -10.08,5.05 -21.2,7.67 -32.94,7.67 -11.75,0 -22.86,-2.62 -32.91,-7.66 -9.98,-4.91 -18.72,-12.29 -25.87,-21.83 -14.84,-19.77 -27.59,-36.33 -40.46,-53.06 -10.36,-13.46 -20.77,-26.99 -31.06,-40.58l-28.68 0c-7.17,0 -13.76,2.03 -19.15,5.67 -5.39,3.6 -9.71,8.97 -12.38,15.63l-57.79 144.59c-2.17,5.44 -2.96,10.97 -2.39,16.28 0.56,5.23 2.53,10.45 5.85,15.36 3.2,4.8 7.35,8.54 12.1,11.07 4.66,2.47 10.07,3.77 15.96,3.77l433.57 0c5.89,0 11.31,-1.3 15.96,-3.77 4.46,-2.37 8.4,-5.82 11.55,-10.19l0.55 -0.88c3.32,-4.91 5.29,-10.13 5.85,-15.36 0.57,-5.3 -0.22,-10.84 -2.4,-16.28l-57.78 -144.59c-2.53,-6.31 -6.54,-11.47 -11.53,-15.09l-0.85 -0.54c-5.38,-3.63 -11.97,-5.67 -19.15,-5.67l-28.7 0zm-22.69 -25.98c0.5,-0.79 1.07,-1.53 1.69,-2.23 66.98,-89.02 126.86,-179.62 126.86,-262.87 0,-65.22 -26.44,-124.27 -69.16,-166.99 -42.72,-42.72 -101.77,-69.16 -166.99,-69.16 -65.22,0 -124.27,26.44 -166.99,69.16 -42.72,42.72 -69.16,101.77 -69.16,166.99 0,83.25 59.87,173.84 126.84,262.85 0.63,0.7 1.21,1.46 1.72,2.27 11.59,15.37 23.36,30.68 35.07,45.9 14.65,19.04 29.28,38.06 40.8,53.46 3.83,5.18 8.54,9.17 13.86,11.83 5.18,2.67 11.21,4.02 17.86,4.02 6.65,0 12.68,-1.36 17.86,-3.95 5.2,-2.6 9.89,-6.61 13.84,-11.9 11.66,-15.59 26.11,-34.38 40.77,-53.41 11.73,-15.24 23.52,-30.58 35.13,-45.97zm-107.6 -384.96c33.08,0 63.05,13.43 84.73,35.11 21.68,21.68 35.11,51.65 35.11,84.73 0,33.08 -13.43,63.06 -35.11,84.74 -21.68,21.68 -51.65,35.1 -84.73,35.1 -33.08,0 -63.06,-13.42 -84.74,-35.1 -21.68,-21.68 -35.1,-51.66 -35.1,-84.74 0,-33.08 13.43,-63.05 35.11,-84.73 21.68,-21.68 51.65,-35.11 84.73,-35.11zm60.79 59.05c-15.54,-15.54 -37.04,-25.17 -60.79,-25.17 -23.75,0 -45.25,9.63 -60.79,25.17 -15.54,15.54 -25.17,37.04 -25.17,60.79 0,23.75 9.62,45.26 25.16,60.8 15.54,15.54 37.05,25.16 60.8,25.16 23.75,0 45.25,-9.62 60.79,-25.16 15.54,-15.54 25.17,-37.05 25.17,-60.8 0,-23.75 -9.63,-45.25 -25.17,-60.79z"/></g><text x="0" y="861.66" fill="#000000" font-size="5px" font-weight="bold" font-family="'Helvetica Neue', Helvetica, Arial-Unicode, Arial, Sans-serif">Created by Liberus</text><text x="0" y="866.66" fill="#000000" font-size="5px" font-weight="bold" font-family="'Helvetica Neue', Helvetica, Arial-Unicode, Arial, Sans-serif">from the Noun Project</text></svg>