<svg xmlns="http://www.w3.org/2000/svg" data-name="Layer 1" viewBox="0 0 96 120" x="0px" y="0px" fill="#fff"><path d="M46.857,87.25a1.266,1.266,0,0,0,2.286,0c5.2-10.914,11.293-19.259,16.665-26.621,7.411-10.156,13.264-18.178,13.264-28.057a31.072,31.072,0,0,0-62.144,0c0,9.879,5.853,17.9,13.264,28.057C35.564,67.991,41.654,76.336,46.857,87.25ZM48,4.033A28.571,28.571,0,0,1,76.539,32.572c0,9.053-5.638,16.781-12.777,26.563C58.711,66.058,53.034,73.837,48,83.827c-5.034-9.99-10.711-17.769-15.762-24.692C25.1,49.353,19.461,41.625,19.461,32.572A28.571,28.571,0,0,1,48,4.033Zm0,42.9A14.363,14.363,0,1,0,33.637,32.572,14.379,14.379,0,0,0,48,46.935Zm0-26.192A11.83,11.83,0,1,1,36.17,32.572,11.843,11.843,0,0,1,48,20.743ZM76.325,86.371c0,2.54-2.988,4.586-8.88,6.08A82.789,82.789,0,0,1,48,94.5a82.789,82.789,0,0,1-19.445-2.049c-5.892-1.494-8.88-3.54-8.88-6.08,0-4.613,9.9-6.594,15.806-7.363a1.267,1.267,0,0,1,.328,2.512c-10.277,1.339-13.6,3.847-13.6,4.851,0,.642,1.457,2.226,6.97,3.625A80.225,80.225,0,0,0,48,91.967,80.225,80.225,0,0,0,66.822,90c5.513-1.4,6.97-2.983,6.97-3.625,0-1-3.324-3.512-13.6-4.851a1.267,1.267,0,1,1,.328-2.512C66.422,79.777,76.325,81.758,76.325,86.371Z"/></svg>