<svg xmlns="http://www.w3.org/2000/svg" xmlns:xlink="http://www.w3.org/1999/xlink" version="1.1" width="1000" height="1000" viewBox="0 0 1000 1000" xml:space="preserve">
<desc>Created with Fabric.js 3.5.0</desc>
<defs>
</defs>
<rect x="0" y="0" width="100%" height="100%" fill="#fff"/>
<g transform="matrix(2.1719 0 0 2.1719 457.7679 645.8888)" id="943088">
<g style="" vector-effect="non-scaling-stroke">
		<g transform="matrix(1 0 0 1 46.3 -63.8)">
<path style="stroke: rgb(0,0,0); stroke-width: 1.5; stroke-dasharray: none; stroke-linecap: butt; stroke-dashoffset: 0; stroke-linejoin: miter; stroke-miterlimit: 4; is-custom-font: none; font-file-url: none; fill: rgb(0,0,0); fill-rule: nonzero; opacity: 1;" transform=" translate(-302.05, -255.95)" d="M 372.3 44.8 H 231.7 c -26.8 0 -48.6 22 -48.6 49.1 V 159 a 10 10 0 0 0 20 0 V 94 a 28.832 28.832 0 0 1 28.6 -29.1 H 372.4 C 388.2 64.9 401 78 401 94 V 418 a 28.832 28.832 0 0 1 -28.6 29.1 H 231.7 c -15.8 0 -28.6 -13.1 -28.6 -29.1 V 353.4 a 10 10 0 0 0 -20 0 V 418 c 0 27.1 21.8 49.1 48.6 49.1 H 372.4 c 26.8 0 48.6 -22 48.6 -49.1 V 94 C 421 66.9 399.2 44.8 372.3 44.8 Z" stroke-linecap="round"/>
</g>
		<g transform="matrix(1 0 0 1 -75.1875 -63.9449)">
<path style="stroke: rgb(0,0,0); stroke-width: 1.5; stroke-dasharray: none; stroke-linecap: butt; stroke-dashoffset: 0; stroke-linejoin: miter; stroke-miterlimit: 4; is-custom-font: none; font-file-url: none; fill: rgb(0,0,0); fill-rule: nonzero; opacity: 1;" transform=" translate(-180.5625, -255.8052)" d="M 122.6 266 H 260.1 a 10 10 0 0 0 0 -20 H 122.6 l 23.1 -27.3 a 10.006 10.006 0 1 0 -15.3 -12.9 l -37 43.7 h 0 l -0.3 0.3 c -0.1 0.1 -0.2 0.3 -0.3 0.4 a 0.52 0.52 0 0 0 -0.2 0.4 c -0.1 0.1 -0.2 0.3 -0.3 0.4 s -0.1 0.3 -0.2 0.4 s -0.1 0.3 -0.2 0.4 s -0.1 0.3 -0.2 0.4 c -0.1 0.2 -0.1 0.3 -0.2 0.5 c 0 0.1 -0.1 0.3 -0.1 0.4 c 0 0.2 -0.1 0.3 -0.1 0.5 c 0 0.1 -0.1 0.3 -0.1 0.4 c 0 0.2 -0.1 0.4 -0.1 0.6 v 0.3 a 6.054 6.054 0 0 0 0 1.9 v 0.3 c 0 0.2 0.1 0.4 0.1 0.6 c 0 0.1 0.1 0.3 0.1 0.4 c 0 0.2 0.1 0.3 0.1 0.5 c 0 0.1 0.1 0.3 0.1 0.4 c 0.1 0.2 0.1 0.3 0.2 0.5 c 0.1 0.1 0.1 0.3 0.2 0.4 c 0.1 0.2 0.1 0.3 0.2 0.4 s 0.1 0.3 0.2 0.4 s 0.2 0.3 0.3 0.4 s 0.1 0.2 0.2 0.4 c 0.1 0.1 0.2 0.3 0.3 0.4 l 0.3 0.3 h 0 l 37 43.7 a 10.039 10.039 0 0 0 15.3 -13 Z" stroke-linecap="round"/>
</g>
</g>
</g>
</svg>