<svg xmlns="http://www.w3.org/2000/svg" data-name="Layer 1" viewBox="0 0 512 640" x="0px" y="0px"><title>LogOut</title><path d="M372.3,44.8H231.7c-26.8,0-48.6,22-48.6,49.1V159a10,10,0,0,0,20,0V94a28.832,28.832,0,0,1,28.6-29.1H372.4C388.2,64.9,401,78,401,94V418a28.832,28.832,0,0,1-28.6,29.1H231.7c-15.8,0-28.6-13.1-28.6-29.1V353.4a10,10,0,0,0-20,0V418c0,27.1,21.8,49.1,48.6,49.1H372.4c26.8,0,48.6-22,48.6-49.1V94C421,66.9,399.2,44.8,372.3,44.8Z"/><path d="M122.6,266H260.1a10,10,0,0,0,0-20H122.6l23.1-27.3a10.006,10.006,0,1,0-15.3-12.9l-37,43.7h0l-.3.3c-.1.1-.2.3-.3.4a.52.52,0,0,0-.2.4c-.1.1-.2.3-.3.4s-.1.3-.2.4-.1.3-.2.4-.1.3-.2.4c-.1.2-.1.3-.2.5,0,.1-.1.3-.1.4,0,.2-.1.3-.1.5,0,.1-.1.3-.1.4,0,.2-.1.4-.1.6v.3a6.054,6.054,0,0,0,0,1.9v.3c0,.2.1.4.1.6,0,.1.1.3.1.4,0,.2.1.3.1.5,0,.1.1.3.1.4.1.2.1.3.2.5.1.1.1.3.2.4.1.2.1.3.2.4s.1.3.2.4.2.3.3.4.1.2.2.4c.1.1.2.3.3.4l.3.3h0l37,43.7a10.039,10.039,0,0,0,15.3-13Z"/></svg>