<svg xmlns="http://www.w3.org/2000/svg" xmlns:xlink="http://www.w3.org/1999/xlink" version="1.1" x="0px" y="0px" viewBox="0 0 128 160" enable-background="new 0 0 128 128" xml:space="preserve"><g><path d="M100.053,17.447H27.947c-5.79,0-10.5,4.71-10.5,10.5v72.105c0,5.79,4.71,10.5,10.5,10.5h39.142c0.001,0,0.002,0,0.004,0   s0.002,0,0.004,0h18.928c0.001,0,0.002,0,0.004,0c0.001,0,0.002,0,0.003,0h14.021c5.79,0,10.5-4.71,10.5-10.5V27.947   C110.553,22.158,105.842,17.447,100.053,17.447z M68.564,105.553L48.684,69.634l6.745-6.186l26.106,42.105H68.564z M22.447,86.91   V68.348L78.8,22.447h13.939L22.447,86.91z M27.947,22.447h42.936L22.447,61.899V27.947C22.447,24.915,24.915,22.447,27.947,22.447z    M22.447,100.053v-6.358L44.893,73.11l17.957,32.443H27.947C24.915,105.553,22.447,103.085,22.447,100.053z M105.553,100.053   c0,3.033-2.467,5.5-5.5,5.5H87.417L59.179,60.008l40.953-37.557c2.996,0.043,5.42,2.49,5.42,5.496V100.053z"/><path d="M86.026,45.948c-9.049,0-16.411,7.362-16.411,16.411c0,8.238,12.896,26.788,14.367,28.876   c0.468,0.665,1.23,1.061,2.044,1.061s1.576-0.396,2.044-1.061c1.471-2.088,14.367-20.638,14.367-28.876   C102.438,53.31,95.076,45.948,86.026,45.948z M86.026,85.366c-5.069-7.62-11.411-18.605-11.411-23.006   c0-6.292,5.119-11.411,11.411-11.411s11.411,5.119,11.411,11.411C97.438,66.757,91.095,77.744,86.026,85.366z"/></g></svg>