<svg xmlns="http://www.w3.org/2000/svg" xmlns:xlink="http://www.w3.org/1999/xlink" version="1.1" width="1000" height="1000" viewBox="0 0 1000 1000" xml:space="preserve">
<desc>Created with Fabric.js 3.5.0</desc>
<defs>
</defs>
<rect x="0" y="0" width="100%" height="100%" fill="#fff"/>
<g transform="matrix(9.6544 0 0 9.6544 500.9298 618.2457)" id="418195">
<g style="" vector-effect="non-scaling-stroke">
		<g transform="matrix(1 0 0 1 -25.0312 -37.5312)">
<path style="stroke: none; stroke-width: 1; stroke-dasharray: none; stroke-linecap: butt; stroke-dashoffset: 0; stroke-linejoin: miter; stroke-miterlimit: 4; is-custom-font: none; font-file-url: none; fill: rgb(0,0,0); fill-rule: nonzero; opacity: 1;" transform=" translate(-24.9688, -24.9689)" d="M 34.9076767 2.8825302 h -19.877697 c -6.6982479 0 -12.14748 5.4492321 -12.14748 12.147481 v 19.877697 c 0 6.698246 5.4492321 12.14748 12.14748 12.14748 h 19.877697 c 6.698246 0 12.147419 -5.449234 12.147419 -12.14748 v -19.877697 C 47.0550957 8.3317623 41.6059227 2.8825302 34.9076767 2.8825302 z M 41.1654701 34.9077072 c 0 3.4506226 -2.8071671 6.2577324 -6.2577934 6.2577324 h -19.877697 c -3.4506254 0 -6.2577925 -2.8071098 -6.2577925 -6.2577324 v -19.877697 c 0 -3.4506264 2.8071671 -6.2577934 6.2577925 -6.2577934 h 19.877697 c 3.4506264 0 6.2577934 2.8071671 6.2577934 6.2577934 V 34.9077072 z" stroke-linecap="round"/>
</g>
		<g transform="matrix(1 0 0 1 25.0311 -37.5312)">
<path style="stroke: none; stroke-width: 1; stroke-dasharray: none; stroke-linecap: butt; stroke-dashoffset: 0; stroke-linejoin: miter; stroke-miterlimit: 4; is-custom-font: none; font-file-url: none; fill: rgb(0,0,0); fill-rule: nonzero; opacity: 1;" transform=" translate(-75.0312, -24.9689)" d="M 84.9699631 2.8825302 H 65.0922623 c -6.698185 0 -12.147419 5.4492321 -12.147419 12.147481 v 19.877697 c 0 6.698246 5.449234 12.14748 12.147419 12.14748 h 19.8777008 c 6.6982422 0 12.1475372 -5.449234 12.1475372 -12.14748 v -19.877697 C 97.1175003 8.3317623 91.6682053 2.8825302 84.9699631 2.8825302 z M 91.2278137 34.9077072 c 0 3.4506226 -2.8071671 6.2577324 -6.2578506 6.2577324 H 65.0922623 c -3.4505653 0 -6.2577324 -2.8071098 -6.2577324 -6.2577324 v -19.877697 c 0 -3.4506264 2.8071671 -6.2577934 6.2577324 -6.2577934 h 19.8777008 c 3.4506836 0 6.2578506 2.8071671 6.2578506 6.2577934 V 34.9077072 z" stroke-linecap="round"/>
</g>
		<g transform="matrix(1 0 0 1 25.0311 12.5312)">
<path style="stroke: none; stroke-width: 1; stroke-dasharray: none; stroke-linecap: butt; stroke-dashoffset: 0; stroke-linejoin: miter; stroke-miterlimit: 4; is-custom-font: none; font-file-url: none; fill: rgb(0,0,0); fill-rule: nonzero; opacity: 1;" transform=" translate(-75.0312, -75.0312)" d="M 75.0311127 52.9448738 c -12.17836 0 -22.0862694 9.9079094 -22.0862694 22.0863304 c 0 12.1783524 9.9079094 22.0862656 22.0862694 22.0862656 c 12.1784744 0 22.0863876 -9.9079132 22.0863876 -22.0862656 C 97.1175003 62.8527832 87.2095871 52.9448738 75.0311127 52.9448738 z M 75.0311127 91.2278442 c -8.9307327 0 -16.1965828 -7.2659073 -16.1965828 -16.19664 c 0 -8.9308014 7.2658501 -16.1966438 16.1965828 -16.1966438 c 8.9308548 0 16.196701 7.2658424 16.196701 16.1966438 C 91.2278137 83.961937 83.9619675 91.2278442 75.0311127 91.2278442 z" stroke-linecap="round"/>
</g>
		<g transform="matrix(1 0 0 1 -25.0312 12.5312)">
<path style="stroke: none; stroke-width: 1; stroke-dasharray: none; stroke-linecap: butt; stroke-dashoffset: 0; stroke-linejoin: miter; stroke-miterlimit: 4; is-custom-font: none; font-file-url: none; fill: rgb(0,0,0); fill-rule: nonzero; opacity: 1;" transform=" translate(-24.9688, -75.0312)" d="M 34.9076767 52.9448738 h -19.877697 c -6.6982479 0 -12.14748 5.449234 -12.14748 12.147419 V 84.970047 c 0 6.6981888 5.4492321 12.1474228 12.14748 12.1474228 h 19.877697 c 6.698246 0 12.147419 -5.449234 12.147419 -12.1474228 V 65.0922928 C 47.0550957 58.3941078 41.6059227 52.9448738 34.9076767 52.9448738 z M 41.1654701 84.970047 c 0 3.4506302 -2.8071671 6.2577972 -6.2577934 6.2577972 h -19.877697 c -3.4506254 0 -6.2577925 -2.8071671 -6.2577925 -6.2577972 V 65.0922928 c 0 -3.4505653 2.8071671 -6.2577324 6.2577925 -6.2577324 h 19.877697 c 3.4506264 0 6.2577934 2.8071671 6.2577934 6.2577324 V 84.970047 z" stroke-linecap="round"/>
</g>
</g>
</g>
</svg>