<svg xmlns="http://www.w3.org/2000/svg" xmlns:xlink="http://www.w3.org/1999/xlink" version="1.1" x="0px" y="0px" viewBox="0 0 100 125" style="enable-background:new 0 0 100 100;" xml:space="preserve"><path d="M34.9076767,2.8825302h-19.877697c-6.6982479,0-12.14748,5.4492321-12.14748,12.147481v19.877697  c0,6.698246,5.4492321,12.14748,12.14748,12.14748h19.877697c6.698246,0,12.147419-5.449234,12.147419-12.14748v-19.877697  C47.0550957,8.3317623,41.6059227,2.8825302,34.9076767,2.8825302z M41.1654701,34.9077072  c0,3.4506226-2.8071671,6.2577324-6.2577934,6.2577324h-19.877697c-3.4506254,0-6.2577925-2.8071098-6.2577925-6.2577324v-19.877697  c0-3.4506264,2.8071671-6.2577934,6.2577925-6.2577934h19.877697c3.4506264,0,6.2577934,2.8071671,6.2577934,6.2577934V34.9077072z"/><path d="M84.9699631,2.8825302H65.0922623c-6.698185,0-12.147419,5.4492321-12.147419,12.147481v19.877697  c0,6.698246,5.449234,12.14748,12.147419,12.14748h19.8777008c6.6982422,0,12.1475372-5.449234,12.1475372-12.14748v-19.877697  C97.1175003,8.3317623,91.6682053,2.8825302,84.9699631,2.8825302z M91.2278137,34.9077072  c0,3.4506226-2.8071671,6.2577324-6.2578506,6.2577324H65.0922623c-3.4505653,0-6.2577324-2.8071098-6.2577324-6.2577324v-19.877697  c0-3.4506264,2.8071671-6.2577934,6.2577324-6.2577934h19.8777008c3.4506836,0,6.2578506,2.8071671,6.2578506,6.2577934V34.9077072z  "/><path d="M75.0311127,52.9448738c-12.17836,0-22.0862694,9.9079094-22.0862694,22.0863304  c0,12.1783524,9.9079094,22.0862656,22.0862694,22.0862656c12.1784744,0,22.0863876-9.9079132,22.0863876-22.0862656  C97.1175003,62.8527832,87.2095871,52.9448738,75.0311127,52.9448738z M75.0311127,91.2278442  c-8.9307327,0-16.1965828-7.2659073-16.1965828-16.19664c0-8.9308014,7.2658501-16.1966438,16.1965828-16.1966438  c8.9308548,0,16.196701,7.2658424,16.196701,16.1966438C91.2278137,83.961937,83.9619675,91.2278442,75.0311127,91.2278442z"/><path d="M34.9076767,52.9448738h-19.877697c-6.6982479,0-12.14748,5.449234-12.14748,12.147419V84.970047  c0,6.6981888,5.4492321,12.1474228,12.14748,12.1474228h19.877697c6.698246,0,12.147419-5.449234,12.147419-12.1474228V65.0922928  C47.0550957,58.3941078,41.6059227,52.9448738,34.9076767,52.9448738z M41.1654701,84.970047  c0,3.4506302-2.8071671,6.2577972-6.2577934,6.2577972h-19.877697c-3.4506254,0-6.2577925-2.8071671-6.2577925-6.2577972V65.0922928  c0-3.4505653,2.8071671-6.2577324,6.2577925-6.2577324h19.877697c3.4506264,0,6.2577934,2.8071671,6.2577934,6.2577324V84.970047z"/></svg>