<svg xmlns="http://www.w3.org/2000/svg" xmlns:xlink="http://www.w3.org/1999/xlink" version="1.1" width="1000" height="1000" viewBox="0 0 1000 1000" xml:space="preserve">
<desc>Created with Fabric.js 3.5.0</desc>
<defs>
</defs>
<rect x="0" y="0" width="100%" height="100%" fill="#ffffff"/>
<g transform="matrix(15.0056 0 0 15.0056 495.1848 618.981)" id="981754">
<g style="" vector-effect="non-scaling-stroke">
		<g transform="matrix(1 0 0 1 -0.0061 -8.2452)">
<path style="stroke: rgb(0,0,0); stroke-width: 1; stroke-dasharray: none; stroke-linecap: butt; stroke-dashoffset: 0; stroke-linejoin: miter; stroke-miterlimit: 4; is-custom-font: none; font-file-url: none; fill: rgb(0,0,0); fill-rule: nonzero; opacity: 1;" transform=" translate(-32.9939, -33.0048)" d="M 63.6 39.92 c -0.12 -2.8 -1.87 -3.22 -3.02 -3.49 c -0.89 -0.21 -1.41 -0.37 -1.74 -1.05 c -0.36 -0.73 -0.37 -1.69 -0.37 -2.61 c 0 -0.61 -0.06 -1.13 -0.11 -1.59 c -0.15 -1.38 -0.18 -1.7 1.09 -2.42 c 0.28 -0.16 0.62 -0.29 0.99 -0.43 c 1.06 -0.41 2.38 -0.92 2.85 -2.45 c 0.47 -1.51 -0.44 -3.17 -1.18 -4.51 c -0.2 -0.36 -0.39 -0.7 -0.52 -0.99 c -0.14 -0.31 -0.27 -0.63 -0.41 -0.95 c -0.67 -1.58 -1.42 -3.38 -2.75 -4.68 c -2.22 -2.18 -4.41 -1.02 -6.17 -0.09 c -0.34 0.18 -0.69 0.37 -1.04 0.53 c -1.47 0.68 -2.4 -0.15 -4.04 -1.79 l -0.33 -0.33 c -1.11 -1.1 -1.34 -2.43 -0.79 -4.6 c 0.26 -0.99 0.5 -2.44 -0.29 -3.53 c -0.59 -0.82 -1.62 -1.26 -3.14 -1.37 c -0.37 -0.03 -0.9 -0.09 -1.52 -0.16 c -4.08 -0.49 -8.23 -0.83 -10.21 0.85 c -0.66 0.56 -1.02 1.31 -1.06 2.18 c -0.03 0.68 -0.02 1.26 -0.02 1.78 c 0.03 1.97 0.03 2.38 -2.16 3.42 l -0.09 0.04 c -2.3 1.09 -3.77 1.65 -4.83 0.08 c -2.14 -3.16 -4.06 -4.84 -5.88 -5.14 c -1.25 -0.2 -2.42 0.32 -3.31 0.81 c -2.14 1.17 -7.16 4.33 -7.46 8.33 c -0.19 2.55 1.48 4.01 2.96 5.3 c 0.65 0.57 1.26 1.1 1.72 1.71 c 1 1.33 0.64 3.66 0.4 5.2 c -0.33 2.17 -1.09 3.13 -3.36 4.27 c -0.4 0.2 -0.99 0.34 -1.57 0.48 c -0.84 0.2 -1.72 0.41 -2.37 0.86 c -0.38 0.26 -0.69 0.59 -0.93 0.98 c -0.76 1.26 -0.61 2.85 -0.33 4.38 c 0.29 1.63 1.76 6.58 4.56 7.97 c 1.01 0.5 2.1 0.49 3.15 -0.04 l 0.32 -0.17 c 0.44 -0.23 0.86 -0.45 1.25 -0.51 c 1.29 -0.19 3.9 2.16 4.5 3.74 c 0.32 0.85 -0.06 1.73 -0.5 2.76 c -0.55 1.29 -1.24 2.89 -0.34 4.64 c 1.06 2.07 3.99 3.14 6.34 4 c 0.72 0.26 1.39 0.51 1.91 0.75 c 0.74 0.34 1.75 0.8 2.85 0.68 c 1.96 -0.22 2.59 -1.92 3.05 -3.15 c 0.29 -0.77 0.56 -1.49 1.02 -1.83 c 1.35 -0.99 3.96 -0.42 5.35 -0.12 c 1.11 0.24 1.31 0.84 1.64 2.07 c 0.27 1.01 0.61 2.27 1.89 3.07 C 39.85 62.93 40.2 63 40.63 63 c 3.21 0 10.95 -3.77 12.26 -5.07 c 2.05 -2.03 0.59 -3.84 -0.28 -4.92 c -0.77 -0.95 -1.1 -1.46 -0.87 -1.99 c 0.3 -0.7 1.04 -1.26 1.7 -1.76 c 0.79 -0.59 1.56 -0.35 2.76 0.09 c 1.18 0.44 2.65 0.99 4.01 -0.16 C 62.23 47.49 63.71 42.36 63.6 39.92 z M 59 47.77 c -0.48 0.4 -1 0.27 -2.16 -0.16 c -1.22 -0.45 -2.88 -1.07 -4.53 0.16 c -0.81 0.6 -1.81 1.36 -2.3 2.52 c -0.69 1.63 0.37 2.94 1.14 3.89 c 1.05 1.3 1.2 1.66 0.42 2.42 c -1.5 1.48 -9.78 4.89 -10.98 4.59 c -0.62 -0.38 -0.81 -1 -1.07 -1.96 c -0.33 -1.23 -0.78 -2.91 -3.05 -3.41 c -0.9 -0.19 -2.2 -0.48 -3.54 -0.48 c -1.17 0 -2.37 0.22 -3.31 0.91 c -0.92 0.67 -1.32 1.74 -1.67 2.68 c -0.48 1.29 -0.77 1.86 -1.51 1.95 c -0.58 0.07 -1.26 -0.25 -1.86 -0.52 c -0.59 -0.27 -1.3 -0.53 -2.05 -0.8 c -2.05 -0.75 -4.59 -1.68 -5.32 -3.1 c -0.47 -0.92 -0.16 -1.76 0.4 -3.05 c 0.52 -1.22 1.12 -2.6 0.53 -4.15 c -0.74 -1.95 -3.91 -5.3 -6.51 -4.93 c -0.71 0.1 -1.32 0.42 -1.85 0.7 l -0.3 0.15 c -0.52 0.26 -0.99 0.27 -1.47 0.03 c -1.81 -0.9 -3.23 -4.83 -3.56 -6.63 c -0.13 -0.73 -0.41 -2.25 0.09 -3.08 c 0.1 -0.17 0.23 -0.3 0.39 -0.41 c 0.37 -0.25 1.07 -0.42 1.75 -0.58 c 0.68 -0.16 1.38 -0.33 1.97 -0.63 c 2.41 -1.2 3.89 -2.51 4.37 -5.65 c 0.28 -1.85 0.71 -4.64 -0.75 -6.6 c -0.57 -0.76 -1.29 -1.39 -1.98 -1.99 c -1.52 -1.32 -2.44 -2.21 -2.32 -3.76 c 0.19 -2.53 3.48 -5.19 6.5 -6.83 c 0.66 -0.36 1.42 -0.71 2.11 -0.6 c 0.87 0.14 2.38 1.01 4.64 4.34 c 2.03 3 5.13 1.53 7.17 0.56 l 0.09 -0.04 c 3.13 -1.49 3.26 -2.78 3.22 -5.14 c -0.01 -0.48 -0.02 -1.03 0.01 -1.66 c 0.02 -0.36 0.14 -0.62 0.41 -0.84 c 1.52 -1.29 6.42 -0.7 8.78 -0.42 c 0.66 0.08 1.22 0.14 1.61 0.17 c 0.64 0.04 1.46 0.18 1.75 0.6 c 0.25 0.34 0.25 1.01 0 1.98 c -0.49 1.9 -0.79 4.34 1.28 6.39 l 0.33 0.32 c 1.6 1.6 3.42 3.42 6.14 2.16 c 0.38 -0.18 0.76 -0.37 1.13 -0.57 c 1.8 -0.95 2.8 -1.4 3.99 -0.23 c 1.06 1.04 1.71 2.58 2.34 4.07 c 0.14 0.33 0.28 0.66 0.42 0.98 c 0.15 0.34 0.36 0.72 0.59 1.14 c 0.53 0.97 1.27 2.3 1.03 3.05 c -0.2 0.64 -0.79 0.89 -1.74 1.26 c -0.41 0.16 -0.83 0.32 -1.23 0.54 c -2.34 1.32 -2.19 2.74 -2.03 4.24 c 0.05 0.44 0.09 0.89 0.1 1.41 c 0.01 1.08 0.01 2.31 0.57 3.42 c 0.74 1.5 2.04 1.81 2.98 2.04 c 1.11 0.27 1.53 0.37 1.59 1.76 C 61.82 41.94 60.51 46.5 59 47.77 z" stroke-linecap="round"/>
</g>
		<g transform="matrix(1 0 0 1 0 -8.235)">
<path style="stroke: rgb(0,0,0); stroke-width: 1; stroke-dasharray: none; stroke-linecap: butt; stroke-dashoffset: 0; stroke-linejoin: miter; stroke-miterlimit: 4; is-custom-font: none; font-file-url: none; fill: rgb(0,0,0); fill-rule: nonzero; opacity: 1;" transform=" translate(-33, -33.015)" d="M 33 16.74 c -8.97 0 -16.27 7.3 -16.27 16.27 S 24.03 49.29 33 49.29 s 16.27 -7.3 16.27 -16.27 S 41.97 16.74 33 16.74 z M 33 47.43 c -7.94 0 -14.41 -6.46 -14.41 -14.41 c 0 -7.94 6.46 -14.41 14.41 -14.41 c 7.94 0 14.41 6.46 14.41 14.41 C 47.41 40.96 40.94 47.43 33 47.43 z" stroke-linecap="round"/>
</g>
		<g transform="matrix(1 0 0 1 18.5099 0.8891)">
<path style="stroke: rgb(0,0,0); stroke-width: 1; stroke-dasharray: none; stroke-linecap: butt; stroke-dashoffset: 0; stroke-linejoin: miter; stroke-miterlimit: 4; is-custom-font: none; font-file-url: none; fill: rgb(0,0,0); fill-rule: nonzero; opacity: 1;" transform=" translate(-51.5099, -42.1391)" d="M 53.55 37.25 c -0.39 0.02 -0.44 2.48 -1.69 5.12 c -1.19 2.67 -3.02 4.32 -2.78 4.62 c 0.1 0.14 0.73 -0.1 1.54 -0.78 c 0.81 -0.67 1.77 -1.82 2.45 -3.29 c 0.67 -1.48 0.91 -2.95 0.89 -4.01 C 53.94 37.86 53.72 37.24 53.55 37.25 z" stroke-linecap="round"/>
</g>
		<g transform="matrix(1 0 0 1 -7.7094 -14.2084)">
<path style="stroke: rgb(0,0,0); stroke-width: 1; stroke-dasharray: none; stroke-linecap: butt; stroke-dashoffset: 0; stroke-linejoin: miter; stroke-miterlimit: 4; is-custom-font: none; font-file-url: none; fill: rgb(0,0,0); fill-rule: nonzero; opacity: 1;" transform=" translate(-25.2905, -27.0416)" d="M 26.92 22.42 c -1.09 0.6 -2.45 1.74 -3.5 3.34 c -1.05 1.61 -1.55 3.31 -1.66 4.55 c -0.12 1.24 0.07 2 0.24 2 c 0.39 0.02 0.6 -2.93 2.54 -5.82 c 1.87 -2.93 4.49 -4.31 4.31 -4.66 C 28.78 21.68 28.01 21.81 26.92 22.42 z" stroke-linecap="round"/>
</g>
</g>
</g>
</svg>