<svg xmlns="http://www.w3.org/2000/svg" xmlns:xlink="http://www.w3.org/1999/xlink" version="1.1" x="0px" y="0px" viewBox="0 0 66 82.5" style="enable-background:new 0 0 66 66;" xml:space="preserve"><path d="M63.6,39.92c-0.12-2.8-1.87-3.22-3.02-3.49c-0.89-0.21-1.41-0.37-1.74-1.05c-0.36-0.73-0.37-1.69-0.37-2.61  c0-0.61-0.06-1.13-0.11-1.59c-0.15-1.38-0.18-1.7,1.09-2.42c0.28-0.16,0.62-0.29,0.99-0.43c1.06-0.41,2.38-0.92,2.85-2.45  c0.47-1.51-0.44-3.17-1.18-4.51c-0.2-0.36-0.39-0.7-0.52-0.99c-0.14-0.31-0.27-0.63-0.41-0.95c-0.67-1.58-1.42-3.38-2.75-4.68  c-2.22-2.18-4.41-1.02-6.17-0.09c-0.34,0.18-0.69,0.37-1.04,0.53c-1.47,0.68-2.4-0.15-4.04-1.79l-0.33-0.33  c-1.11-1.1-1.34-2.43-0.79-4.6c0.26-0.99,0.5-2.44-0.29-3.53c-0.59-0.82-1.62-1.26-3.14-1.37c-0.37-0.03-0.9-0.09-1.52-0.16  c-4.08-0.49-8.23-0.83-10.21,0.85c-0.66,0.56-1.02,1.31-1.06,2.18c-0.03,0.68-0.02,1.26-0.02,1.78c0.03,1.97,0.03,2.38-2.16,3.42  l-0.09,0.04c-2.3,1.09-3.77,1.65-4.83,0.08c-2.14-3.16-4.06-4.84-5.88-5.14c-1.25-0.2-2.42,0.32-3.31,0.81  c-2.14,1.17-7.16,4.33-7.46,8.33c-0.19,2.55,1.48,4.01,2.96,5.3c0.65,0.57,1.26,1.1,1.72,1.71c1,1.33,0.64,3.66,0.4,5.2  c-0.33,2.17-1.09,3.13-3.36,4.27c-0.4,0.2-0.99,0.34-1.57,0.48c-0.84,0.2-1.72,0.41-2.37,0.86c-0.38,0.26-0.69,0.59-0.93,0.98  c-0.76,1.26-0.61,2.85-0.33,4.38c0.29,1.63,1.76,6.58,4.56,7.97c1.01,0.5,2.1,0.49,3.15-0.04l0.32-0.17  c0.44-0.23,0.86-0.45,1.25-0.51c1.29-0.19,3.9,2.16,4.5,3.74c0.32,0.85-0.06,1.73-0.5,2.76c-0.55,1.29-1.24,2.89-0.34,4.64  c1.06,2.07,3.99,3.14,6.34,4c0.72,0.26,1.39,0.51,1.91,0.75c0.74,0.34,1.75,0.8,2.85,0.68c1.96-0.22,2.59-1.92,3.05-3.15  c0.29-0.77,0.56-1.49,1.02-1.83c1.35-0.99,3.96-0.42,5.35-0.12c1.11,0.24,1.31,0.84,1.64,2.07c0.27,1.01,0.61,2.27,1.89,3.07  C39.85,62.93,40.2,63,40.63,63c3.21,0,10.95-3.77,12.26-5.07c2.05-2.03,0.59-3.84-0.28-4.92c-0.77-0.95-1.1-1.46-0.87-1.99  c0.3-0.7,1.04-1.26,1.7-1.76c0.79-0.59,1.56-0.35,2.76,0.09c1.18,0.44,2.65,0.99,4.01-0.16C62.23,47.49,63.71,42.36,63.6,39.92z   M59,47.77c-0.48,0.4-1,0.27-2.16-0.16c-1.22-0.45-2.88-1.07-4.53,0.16c-0.81,0.6-1.81,1.36-2.3,2.52  c-0.69,1.63,0.37,2.94,1.14,3.89c1.05,1.3,1.2,1.66,0.42,2.42c-1.5,1.48-9.78,4.89-10.98,4.59c-0.62-0.38-0.81-1-1.07-1.96  c-0.33-1.23-0.78-2.91-3.05-3.41c-0.9-0.19-2.2-0.48-3.54-0.48c-1.17,0-2.37,0.22-3.31,0.91c-0.92,0.67-1.32,1.74-1.67,2.68  c-0.48,1.29-0.77,1.86-1.51,1.95c-0.58,0.07-1.26-0.25-1.86-0.52c-0.59-0.27-1.3-0.53-2.05-0.8c-2.05-0.75-4.59-1.68-5.32-3.1  c-0.47-0.92-0.16-1.76,0.4-3.05c0.52-1.22,1.12-2.6,0.53-4.15c-0.74-1.95-3.91-5.3-6.51-4.93c-0.71,0.1-1.32,0.42-1.85,0.7  l-0.3,0.15c-0.52,0.26-0.99,0.27-1.47,0.03c-1.81-0.9-3.23-4.83-3.56-6.63c-0.13-0.73-0.41-2.25,0.09-3.08  c0.1-0.17,0.23-0.3,0.39-0.41c0.37-0.25,1.07-0.42,1.75-0.58c0.68-0.16,1.38-0.33,1.97-0.63c2.41-1.2,3.89-2.51,4.37-5.65  c0.28-1.85,0.71-4.64-0.75-6.6c-0.57-0.76-1.29-1.39-1.98-1.99c-1.52-1.32-2.44-2.21-2.32-3.76c0.19-2.53,3.48-5.19,6.5-6.83  c0.66-0.36,1.42-0.71,2.11-0.6c0.87,0.14,2.38,1.01,4.64,4.34c2.03,3,5.13,1.53,7.17,0.56l0.09-0.04c3.13-1.49,3.26-2.78,3.22-5.14  c-0.01-0.48-0.02-1.03,0.01-1.66c0.02-0.36,0.14-0.62,0.41-0.84c1.52-1.29,6.42-0.7,8.78-0.42c0.66,0.08,1.22,0.14,1.61,0.17  c0.64,0.04,1.46,0.18,1.75,0.6c0.25,0.34,0.25,1.01,0,1.98c-0.49,1.9-0.79,4.34,1.28,6.39l0.33,0.32c1.6,1.6,3.42,3.42,6.14,2.16  c0.38-0.18,0.76-0.37,1.13-0.57c1.8-0.95,2.8-1.4,3.99-0.23c1.06,1.04,1.71,2.58,2.34,4.07c0.14,0.33,0.28,0.66,0.42,0.98  c0.15,0.34,0.36,0.72,0.59,1.14c0.53,0.97,1.27,2.3,1.03,3.05c-0.2,0.64-0.79,0.89-1.74,1.26c-0.41,0.16-0.83,0.32-1.23,0.54  c-2.34,1.32-2.19,2.74-2.03,4.24c0.05,0.44,0.09,0.89,0.1,1.41c0.01,1.08,0.01,2.31,0.57,3.42c0.74,1.5,2.04,1.81,2.98,2.04  c1.11,0.27,1.53,0.37,1.59,1.76C61.82,41.94,60.51,46.5,59,47.77z"/><path d="M33,16.74c-8.97,0-16.27,7.3-16.27,16.27S24.03,49.29,33,49.29s16.27-7.3,16.27-16.27S41.97,16.74,33,16.74z M33,47.43  c-7.94,0-14.41-6.46-14.41-14.41c0-7.94,6.46-14.41,14.41-14.41c7.94,0,14.41,6.46,14.41,14.41C47.41,40.96,40.94,47.43,33,47.43z"/><path d="M53.55,37.25c-0.39,0.02-0.44,2.48-1.69,5.12c-1.19,2.67-3.02,4.32-2.78,4.62c0.1,0.14,0.73-0.1,1.54-0.78  c0.81-0.67,1.77-1.82,2.45-3.29c0.67-1.48,0.91-2.95,0.89-4.01C53.94,37.86,53.72,37.24,53.55,37.25z"/><path d="M26.92,22.42c-1.09,0.6-2.45,1.74-3.5,3.34c-1.05,1.61-1.55,3.31-1.66,4.55c-0.12,1.24,0.07,2,0.24,2  c0.39,0.02,0.6-2.93,2.54-5.82c1.87-2.93,4.49-4.31,4.31-4.66C28.78,21.68,28.01,21.81,26.92,22.42z"/></svg>