<svg width="114" height="114" viewBox="0 0 114 114" fill="none" xmlns="http://www.w3.org/2000/svg">
<g id="Sun">
<g id="Union" filter="url(#filter0_di_101_4667)">
<path fill-rule="evenodd" clip-rule="evenodd" d="M57.0262 12.9126C58.4739 12.9126 59.6474 14.0861 59.6474 15.5338V19.2034C59.6474 20.651 58.4739 21.8245 57.0262 21.8245C55.5786 21.8245 54.4051 20.651 54.4051 19.2034V15.5338C54.4051 14.0861 55.5786 12.9126 57.0262 12.9126ZM57.0262 92.1763C58.4739 92.1763 59.6474 93.3498 59.6474 94.7975V98.4671C59.6474 99.9147 58.4739 101.088 57.0262 101.088C55.5786 101.088 54.4051 99.9147 54.4051 98.4671V94.7975C54.4051 93.3498 55.5786 92.1763 57.0262 92.1763ZM15.5071 54.3793C14.0595 54.3793 12.886 55.5528 12.886 57.0004C12.886 58.448 14.0595 59.6216 15.5071 59.6216H19.2292C20.6768 59.6216 21.8503 58.448 21.8503 57.0004C21.8503 55.5528 20.6768 54.3793 19.2292 54.3793H15.5071ZM92.2545 57.0004C92.2545 55.5528 93.4281 54.3793 94.8757 54.3793H98.4929C99.9405 54.3793 101.114 55.5528 101.114 57.0004C101.114 58.448 99.9405 59.6216 98.4929 59.6216H94.8757C93.4281 59.6216 92.2545 58.448 92.2545 57.0004ZM32.1439 85.5896C33.1675 84.566 33.1675 82.9064 32.1439 81.8828C31.1203 80.8591 29.4606 80.8591 28.437 81.8828L25.8683 84.4515C24.8447 85.4751 24.8447 87.1347 25.8683 88.1584C26.8919 89.182 28.5515 89.182 29.5752 88.1584L32.1439 85.5896ZM88.1842 25.8425C89.2078 26.8661 89.2078 28.5257 88.1842 29.5493L85.6154 32.1181C84.5918 33.1417 82.9322 33.1417 81.9086 32.1181C80.8849 31.0944 80.8849 29.4348 81.9086 28.4112L84.4773 25.8425C85.5009 24.8188 87.1605 24.8188 88.1842 25.8425ZM29.5752 25.8425C28.5515 24.8188 26.8919 24.8188 25.8683 25.8425C24.8447 26.8661 24.8447 28.5257 25.8683 29.5493L28.437 32.1181C29.4606 33.1417 31.1203 33.1417 32.1439 32.1181C33.1675 31.0944 33.1675 29.4348 32.1439 28.4112L29.5752 25.8425ZM81.9086 81.8828C82.9322 80.8591 84.5918 80.8591 85.6154 81.8828L88.1842 84.4515C89.2078 85.4751 89.2078 87.1347 88.1842 88.1584C87.1605 89.182 85.5009 89.182 84.4773 88.1584L81.9086 85.5896C80.8849 84.566 80.8849 82.9064 81.9086 81.8828ZM57 86.1389C73.0928 86.1389 86.1385 73.0932 86.1385 57.0004C86.1385 40.9077 73.0928 27.8619 57 27.8619C40.9073 27.8619 27.8615 40.9077 27.8615 57.0004C27.8615 73.0932 40.9073 86.1389 57 86.1389Z" fill="url(#paint0_linear_101_4667)"/>
</g>
</g>
<defs>
<filter id="filter0_di_101_4667" x="0.885986" y="0.912598" width="112.228" height="112.176" filterUnits="userSpaceOnUse" color-interpolation-filters="sRGB">
<feFlood flood-opacity="0" result="BackgroundImageFix"/>
<feColorMatrix in="SourceAlpha" type="matrix" values="0 0 0 0 0 0 0 0 0 0 0 0 0 0 0 0 0 0 127 0" result="hardAlpha"/>
<feOffset/>
<feGaussianBlur stdDeviation="6"/>
<feComposite in2="hardAlpha" operator="out"/>
<feColorMatrix type="matrix" values="0 0 0 0 1 0 0 0 0 0.9 0 0 0 0 0 0 0 0 0.4 0"/>
<feBlend mode="normal" in2="BackgroundImageFix" result="effect1_dropShadow_101_4667"/>
<feBlend mode="normal" in="SourceGraphic" in2="effect1_dropShadow_101_4667" result="shape"/>
<feColorMatrix in="SourceAlpha" type="matrix" values="0 0 0 0 0 0 0 0 0 0 0 0 0 0 0 0 0 0 127 0" result="hardAlpha"/>
<feOffset dy="0.6"/>
<feGaussianBlur stdDeviation="1.8"/>
<feComposite in2="hardAlpha" operator="arithmetic" k2="-1" k3="1"/>
<feColorMatrix type="matrix" values="0 0 0 0 1 0 0 0 0 1 0 0 0 0 1 0 0 0 1 0"/>
<feBlend mode="normal" in2="shape" result="effect2_innerShadow_101_4667"/>
</filter>
<linearGradient id="paint0_linear_101_4667" x1="57" y1="12.9126" x2="57" y2="101.088" gradientUnits="userSpaceOnUse">
<stop stop-color="#FCC308"/>
<stop offset="1" stop-color="#FF627C"/>
</linearGradient>
</defs>
</svg>
