<svg xmlns="http://www.w3.org/2000/svg" xmlns:xlink="http://www.w3.org/1999/xlink" version="1.1" x="0px" y="0px" viewBox="0 0 100 125" style="enable-background:new 0 0 100 100;" xml:space="preserve"><path d="M50,97.5c-19.5244141,0-35.4091797-15.8847656-35.4091797-35.4091797  c0-31.9160156,32.4765625-57.9589844,33.8583984-59.0517578c0.9101562-0.71875,2.1914062-0.71875,3.1015625,0  c1.3818359,1.0927734,33.8583984,27.1357422,33.8583984,59.0517578C85.4091797,81.6152344,69.5244141,97.5,50,97.5z M50,8.2675781  c-6.4033203,5.5654297-30.4091797,28.1474609-30.4091797,53.8232422C19.5908203,78.8583984,33.2324219,92.5,50,92.5  s30.4091797-13.6416016,30.4091797-30.4091797C80.4091797,36.4150391,56.4033203,13.8330078,50,8.2675781z"/><path d="M53.0244141,85.1894531c-1.2207031,0-2.2890625-0.8945312-2.4707031-2.1376953  c-0.2001953-1.3662109,0.7451172-2.6357422,2.1113281-2.8359375c8.9238281-1.3056641,15.6523438-9.0976562,15.6523438-18.125  c0-1.3808594,1.1191406-2.5,2.5-2.5s2.5,1.1191406,2.5,2.5C73.3173828,73.5810547,64.75,83.5,53.3896484,85.1630859  C53.2666016,85.1806641,53.1445312,85.1894531,53.0244141,85.1894531z"/></svg>