<svg xmlns="http://www.w3.org/2000/svg" xmlns:xlink="http://www.w3.org/1999/xlink" xml:space="preserve" version="1.1" style="shape-rendering:geometricPrecision;text-rendering:geometricPrecision;image-rendering:optimizeQuality;" viewBox="0 0 245 232.5" x="0px" y="0px" fill-rule="evenodd" clip-rule="evenodd"><defs><style type="text/css">
   
    .fil0 {fill:black;fill-rule:nonzero}
   
  </style></defs><g><path class="fil0" d="M40 99c-11,0 -11,-17 0,-17l120 0c17,0 37,0 54,6 49,19 38,93 -15,98 -29,2 -49,-19 -53,-47 -2,-11 15,-13 17,-2 3,19 14,33 34,32 36,-3 42,-53 10,-65 -13,-5 -31,-5 -47,-5l-120 0z"/><path class="fil0" d="M72 71c-11,0 -11,-17 0,-17l74 0c10,0 21,0 28,-3 17,-7 14,-32 -5,-34 -11,-1 -16,7 -18,17 -1,11 -18,9 -17,-2 3,-19 17,-34 37,-32 36,3 43,54 10,67 -11,4 -24,4 -35,4l-74 0z"/><path class="fil0" d="M8 129c-11,0 -11,-17 0,-17l75 0c10,0 23,0 34,5 33,13 26,63 -10,66 -20,2 -34,-12 -36,-31 -2,-11 15,-14 16,-3 2,10 8,18 18,17 19,-1 22,-27 6,-34 -8,-3 -19,-3 -28,-3l-75 0z"/></g></svg>